<svg width="170" height="40" viewBox="0 0 170 40" fill="none" xmlns="http://www.w3.org/2000/svg">
<path d="M55.2656 13.9141C55.8776 13.9141 56.4766 14.0182 57.0625 14.2266C57.6484 14.4349 58.1758 14.7409 58.6445 15.1445C59.1263 15.5482 59.5039 16.0365 59.7773 16.6094C60.0638 17.1693 60.207 17.8138 60.207 18.543C60.207 19.4284 59.9792 20.2161 59.5234 20.9062C59.0807 21.5833 58.4883 22.1172 57.7461 22.5078C57.0039 22.8984 56.1966 23.0938 55.3242 23.0938C54.7383 23.0938 54.2109 23.0352 53.7422 22.918C53.2734 22.8008 52.8828 22.6641 52.5703 22.5078V27H49.8555V13.9141H55.2656ZM52.5703 16.4531V20.3203C52.8568 20.4375 53.2018 20.5417 53.6055 20.6328C54.0221 20.7109 54.4453 20.75 54.875 20.75C55.6562 20.75 56.2747 20.5352 56.7305 20.1055C57.1992 19.6628 57.4336 19.1419 57.4336 18.543C57.4336 17.8529 57.1732 17.332 56.6523 16.9805C56.1315 16.6289 55.5195 16.4531 54.8164 16.4531H52.5703ZM67.1602 13.8164L73.2539 27H70.0703L69.0742 24.5586H63.8984L62.9023 27H59.7188L65.8125 13.8164H67.1602ZM66.4961 18.25L64.8555 22.2539H68.1367L66.4961 18.25ZM81.418 19.9102H85.8711V25.2422C85.3242 25.8151 84.6276 26.3034 83.7812 26.707C82.9479 27.0977 82.0039 27.293 80.9492 27.293C80.0117 27.293 79.1263 27.1302 78.293 26.8047C77.4596 26.4661 76.724 25.9974 76.0859 25.3984C75.4479 24.7865 74.9466 24.0638 74.582 23.2305C74.2174 22.3971 74.0352 21.4727 74.0352 20.457C74.0352 19.4414 74.2174 18.5169 74.582 17.6836C74.9466 16.8503 75.4479 16.1341 76.0859 15.5352C76.724 14.9232 77.4596 14.4544 78.293 14.1289C79.1263 13.7904 80.0117 13.6211 80.9492 13.6211C81.7695 13.6211 82.4792 13.7383 83.0781 13.9727C83.6771 14.194 84.1979 14.5 84.6406 14.8906V17.625C84.3281 17.3906 84.0026 17.1628 83.6641 16.9414C83.3255 16.7201 82.9414 16.5378 82.5117 16.3945C82.0951 16.2513 81.6003 16.1797 81.0273 16.1797C80.2461 16.1797 79.5365 16.3685 78.8984 16.7461C78.2604 17.1237 77.7526 17.6315 77.375 18.2695C76.9974 18.9076 76.8086 19.6367 76.8086 20.457C76.8086 21.2643 76.9974 21.9935 77.375 22.6445C77.7526 23.2826 78.2604 23.7904 78.8984 24.168C79.5365 24.5326 80.2461 24.7148 81.0273 24.7148C81.6263 24.7148 82.1081 24.6432 82.4727 24.5C82.8372 24.3568 83.1237 24.2005 83.332 24.0312L83.3516 21.8633H81.418V19.9102ZM97.3359 19.2266V21.4336H91.5547V24.5977H98.0977V27H88.8398V13.9141H98.0977V16.2578H91.5547V19.2266H97.3359ZM106.926 13.9141C107.538 13.9141 108.137 13.9987 108.723 14.168C109.309 14.3372 109.836 14.5977 110.305 14.9492C110.786 15.3008 111.164 15.7435 111.438 16.2773C111.724 16.7982 111.867 17.4232 111.867 18.1523C111.867 18.9206 111.672 19.5846 111.281 20.1445C110.904 20.6914 110.402 21.1211 109.777 21.4336C109.152 21.7331 108.475 21.9089 107.746 21.9609L112.453 27H108.879L104.328 21.6484V27H101.613V13.9141H106.926ZM104.328 16.4531V19.7539C104.641 19.8581 104.986 19.9427 105.363 20.0078C105.754 20.0599 106.145 20.0859 106.535 20.0859C107.316 20.0859 107.935 19.9297 108.391 19.6172C108.859 19.2917 109.094 18.8359 109.094 18.25C109.094 17.612 108.846 17.1562 108.352 16.8828C107.87 16.5964 107.277 16.4531 106.574 16.4531H104.328ZM117.375 13.9141V24.5586H123.918V27H114.66V13.9141H117.375ZM132.785 13.8164L138.879 27H135.695L134.699 24.5586H129.523L128.527 27H125.344L131.438 13.8164H132.785ZM132.121 18.25L130.48 22.2539H133.762L132.121 18.25ZM152.473 13.9141V27.0977H151.496L143.742 19.1094V27H141.027V13.8164H142.004L149.758 21.9219V13.9141H152.473ZM161.457 13.6016C162.837 13.6016 164.048 13.8815 165.09 14.4414C166.132 15.0013 166.939 15.7826 167.512 16.7852C168.098 17.7878 168.391 18.9661 168.391 20.3203C168.391 21.6094 168.117 22.7812 167.57 23.8359C167.023 24.8776 166.242 25.7044 165.227 26.3164C164.211 26.9284 163 27.2344 161.594 27.2344C160.695 27.2344 159.797 27.1888 158.898 27.0977C158.013 27.0065 157.173 26.8828 156.379 26.7266V14.1094C157.186 13.9792 158.013 13.862 158.859 13.7578C159.706 13.6536 160.572 13.6016 161.457 13.6016ZM161.516 16.1406C161.125 16.1406 160.715 16.1602 160.285 16.1992C159.855 16.2383 159.458 16.2904 159.094 16.3555V24.4805C159.484 24.5586 159.888 24.6172 160.305 24.6562C160.734 24.6823 161.138 24.6953 161.516 24.6953C162.375 24.6953 163.111 24.513 163.723 24.1484C164.335 23.7708 164.803 23.2565 165.129 22.6055C165.454 21.9544 165.617 21.2253 165.617 20.418C165.617 19.5846 165.454 18.849 165.129 18.2109C164.803 17.5729 164.335 17.0716 163.723 16.707C163.111 16.3294 162.375 16.1406 161.516 16.1406Z" fill="#252728"/>
<path d="M25.6101 7.62337C25.6101 11.8336 19.4637 20.4878 19.4637 20.4878C19.4637 20.4878 13.3173 11.8336 13.3173 7.62337C13.3173 3.4131 16.0691 0 19.4637 0C22.8582 0 25.6101 3.4131 25.6101 7.62337Z" fill="#0C4B5B"/>
<path d="M14.3417 34.1917C14.3417 30.9839 18.9515 24.3902 18.9515 24.3902C18.9515 24.3902 23.5613 30.9839 23.5613 34.1917C23.5613 37.3995 21.4974 40 18.9515 40C16.4056 40 14.3417 37.3995 14.3417 34.1917Z" fill="#0C4B5B"/>
<path d="M31.8688 21.2307C28.9875 22.815 20.7521 22.2564 20.7521 22.2564C20.7521 22.2564 24.3618 15.1847 27.2431 13.6004C30.1244 12.0161 33.4957 12.4398 34.7731 14.5469C36.0504 16.654 34.7502 19.6464 31.8688 21.2307Z" fill="#51B3A7"/>
<path d="M5.38797 25.4871C8.36363 23.851 16.8686 24.4279 16.8686 24.4279C16.8686 24.4279 13.1408 31.7311 10.1651 33.3673C7.18947 35.0035 3.70782 34.5658 2.38864 32.3898C1.06947 30.2137 2.41231 27.1233 5.38797 25.4871Z" fill="#51B3A7"/>
<path d="M28.4598 34.134C25.0816 32.2765 20.8495 23.9853 20.8495 23.9853C20.8495 23.9853 30.505 23.3303 33.8832 25.1878C37.2614 27.0453 38.7859 30.5538 37.2883 33.0242C35.7907 35.4947 31.838 35.9915 28.4598 34.134Z" fill="#F24F28"/>
<path d="M11.7312 14.2306C14.2657 15.6242 17.4409 21.8447 17.4409 21.8447C17.4409 21.8447 10.1968 22.3361 7.66234 20.9425C5.12785 19.5489 3.9841 16.9167 5.10769 15.0633C6.23129 13.2098 9.19675 12.837 11.7312 14.2306Z" fill="#F24F28"/>
</svg>
